<svg width="24" height="15" viewBox="0 0 24 15" fill="none" xmlns="http://www.w3.org/2000/svg">
<rect width="24" height="15" fill="#E3E3E3"/>
<rect width="1024" height="780" transform="translate(-366 -321)" fill="#F6F6FA"/>
<rect x="-342" y="-321" width="638" height="362" rx="16" fill="white"/>
<path d="M-283.138 11.1523C-284.428 11.1523 -285.463 10.7271 -286.242 9.87646C-287.016 9.02588 -287.403 7.91927 -287.403 6.55664C-287.403 5.09245 -287.008 3.92448 -286.216 3.05273C-285.425 2.18099 -284.348 1.74512 -282.985 1.74512C-281.729 1.74512 -280.717 2.16829 -279.951 3.01465C-279.181 3.861 -278.796 4.96761 -278.796 6.33447C-278.796 7.81982 -279.189 8.99414 -279.977 9.85742C-280.764 10.7207 -281.817 11.1523 -283.138 11.1523ZM-283.062 2.70996C-284.018 2.70996 -284.794 3.05485 -285.391 3.74463C-285.988 4.43441 -286.286 5.34001 -286.286 6.46143C-286.286 7.58285 -285.996 8.48633 -285.417 9.17188C-284.833 9.85319 -284.073 10.1938 -283.138 10.1938C-282.139 10.1938 -281.352 9.868 -280.776 9.21631C-280.201 8.56462 -279.913 7.65267 -279.913 6.48047C-279.913 5.27865 -280.192 4.34977 -280.751 3.69385C-281.31 3.03792 -282.08 2.70996 -283.062 2.70996ZM-272.118 1.30078V2.27832C-272.292 2.40527 -272.571 2.50049 -272.956 2.56396C-273.908 2.70785 -274.575 2.84749 -274.956 2.98291C-275.332 3.1141 -275.643 3.39762 -275.889 3.8335C-276.13 4.26937 -276.284 4.90625 -276.352 5.74414H-276.327C-275.819 5.00781 -275.095 4.63965 -274.156 4.63965C-273.297 4.63965 -272.605 4.93376 -272.08 5.52197C-271.555 6.11019 -271.293 6.88672 -271.293 7.85156C-271.293 8.84603 -271.568 9.64583 -272.118 10.251C-272.664 10.8519 -273.4 11.1523 -274.327 11.1523C-275.326 11.1523 -276.096 10.799 -276.638 10.0923C-277.175 9.38135 -277.444 8.36784 -277.444 7.05176C-277.444 6.02767 -277.347 5.16016 -277.152 4.44922C-276.957 3.73405 -276.688 3.19661 -276.346 2.83691C-275.999 2.47721 -275.616 2.22965 -275.197 2.09424C-274.774 1.95882 -274.05 1.80013 -273.026 1.61816C-272.62 1.52507 -272.317 1.41927 -272.118 1.30078ZM-276.365 6.77246V7.67383C-276.361 8.01237 -276.31 8.34456 -276.212 8.67041C-276.115 8.99626 -275.975 9.28402 -275.793 9.53369C-275.611 9.78337 -275.398 9.96956 -275.152 10.0923C-274.903 10.215 -274.619 10.2764 -274.302 10.2764C-273.722 10.2764 -273.254 10.0605 -272.899 9.62891C-272.539 9.19303 -272.359 8.63656 -272.359 7.95947C-272.359 7.21468 -272.543 6.62435 -272.912 6.18848C-273.276 5.74837 -273.769 5.52832 -274.391 5.52832C-275.262 5.52832 -275.92 5.94303 -276.365 6.77246ZM-268.551 10.0605H-268.576V13.9897H-269.617V4.5H-268.576V5.64258H-268.551C-268.039 4.7793 -267.29 4.34766 -266.304 4.34766C-265.466 4.34766 -264.812 4.63965 -264.342 5.22363C-263.873 5.80339 -263.638 6.58203 -263.638 7.55957C-263.638 8.64714 -263.902 9.51888 -264.431 10.1748C-264.96 10.8265 -265.684 11.1523 -266.602 11.1523C-267.444 11.1523 -268.094 10.7884 -268.551 10.0605ZM-268.576 7.43896V8.34668C-268.576 8.88411 -268.403 9.34115 -268.056 9.71777C-267.704 10.0902 -267.26 10.2764 -266.723 10.2764C-266.092 10.2764 -265.599 10.0352 -265.244 9.55273C-264.884 9.07031 -264.704 8.39958 -264.704 7.54053C-264.704 6.81689 -264.871 6.24984 -265.206 5.83936C-265.54 5.42887 -265.993 5.22363 -266.564 5.22363C-267.169 5.22363 -267.656 5.43522 -268.024 5.8584C-268.392 6.27734 -268.576 6.8042 -268.576 7.43896ZM-257.322 11H-258.363V9.98438H-258.388C-258.841 10.763 -259.507 11.1523 -260.388 11.1523C-261.035 11.1523 -261.543 10.981 -261.911 10.6382C-262.275 10.2954 -262.457 9.84049 -262.457 9.27344C-262.457 8.05892 -261.742 7.35221 -260.312 7.15332L-258.363 6.88037C-258.363 5.77588 -258.809 5.22363 -259.702 5.22363C-260.485 5.22363 -261.192 5.49023 -261.822 6.02344V4.95703C-261.183 4.55078 -260.447 4.34766 -259.613 4.34766C-258.086 4.34766 -257.322 5.15592 -257.322 6.77246V11ZM-258.363 7.71191L-259.931 7.92773C-260.413 7.99544 -260.777 8.11605 -261.022 8.28955C-261.268 8.45882 -261.391 8.76139 -261.391 9.19727C-261.391 9.51465 -261.278 9.7749 -261.054 9.97803C-260.826 10.1769 -260.523 10.2764 -260.146 10.2764C-259.63 10.2764 -259.205 10.0965 -258.871 9.73682C-258.532 9.37288 -258.363 8.91374 -258.363 8.35938V7.71191ZM-251.279 5.38867H-253.228V11H-254.269V5.38867H-256.224V4.5H-251.279V5.38867ZM-244.633 11H-245.674V8.04834H-248.987V11H-250.028V4.5H-248.987V7.16602H-245.674V4.5H-244.633V11ZM-237.873 11H-238.914V9.98438H-238.939C-239.392 10.763 -240.058 11.1523 -240.938 11.1523C-241.586 11.1523 -242.094 10.981 -242.462 10.6382C-242.826 10.2954 -243.008 9.84049 -243.008 9.27344C-243.008 8.05892 -242.293 7.35221 -240.862 7.15332L-238.914 6.88037C-238.914 5.77588 -239.36 5.22363 -240.253 5.22363C-241.036 5.22363 -241.743 5.49023 -242.373 6.02344V4.95703C-241.734 4.55078 -240.998 4.34766 -240.164 4.34766C-238.636 4.34766 -237.873 5.15592 -237.873 6.77246V11ZM-238.914 7.71191L-240.481 7.92773C-240.964 7.99544 -241.328 8.11605 -241.573 8.28955C-241.819 8.45882 -241.941 8.76139 -241.941 9.19727C-241.941 9.51465 -241.829 9.7749 -241.605 9.97803C-241.376 10.1769 -241.074 10.2764 -240.697 10.2764C-240.181 10.2764 -239.756 10.0965 -239.421 9.73682C-239.083 9.37288 -238.914 8.91374 -238.914 8.35938V7.71191ZM-231.468 11H-232.509V8.30859H-233.378C-233.797 8.30859 -234.178 8.64714 -234.521 9.32422L-235.365 11H-236.571L-235.479 8.99414C-235.226 8.52865 -234.919 8.22184 -234.559 8.07373C-235.067 8.00602 -235.454 7.81982 -235.721 7.51514C-235.987 7.21045 -236.121 6.82959 -236.121 6.37256C-236.121 5.79704 -235.913 5.34212 -235.499 5.00781C-235.08 4.66927 -234.493 4.5 -233.74 4.5H-231.468V11ZM-232.509 7.43896V5.38867H-233.74C-234.616 5.38867 -235.054 5.72087 -235.054 6.38525C-235.054 7.08773 -234.629 7.43896 -233.778 7.43896H-232.509ZM-220.137 13.3677H-221.02V11H-225.856V13.3677H-226.745V10.1177H-226.167C-225.059 8.51807 -224.496 6.64551 -224.479 4.5H-221.102V10.1177H-220.137V13.3677ZM-222.143 10.1177V5.38232H-223.584C-223.698 7.13428 -224.191 8.71273 -225.063 10.1177H-222.143ZM-215.979 11.1523C-216.94 11.1523 -217.708 10.8498 -218.284 10.2446C-218.855 9.63525 -219.141 8.8291 -219.141 7.82617C-219.141 6.73438 -218.842 5.88167 -218.246 5.26807C-217.649 4.65446 -216.843 4.34766 -215.827 4.34766C-214.858 4.34766 -214.103 4.646 -213.561 5.24268C-213.015 5.83936 -212.742 6.66667 -212.742 7.72461C-212.742 8.76139 -213.036 9.59294 -213.625 10.2192C-214.208 10.8413 -214.993 11.1523 -215.979 11.1523ZM-215.903 5.22363C-216.572 5.22363 -217.101 5.45215 -217.49 5.90918C-217.88 6.36198 -218.074 6.98828 -218.074 7.78809C-218.074 8.55827 -217.877 9.16553 -217.484 9.60986C-217.09 10.0542 -216.563 10.2764 -215.903 10.2764C-215.23 10.2764 -214.714 10.0584 -214.354 9.62256C-213.991 9.18669 -213.809 8.56673 -213.809 7.7627C-213.809 6.9502 -213.991 6.32389 -214.354 5.88379C-214.714 5.44368 -215.23 5.22363 -215.903 5.22363ZM-206.648 10.7017C-207.148 11.0021 -207.74 11.1523 -208.426 11.1523C-209.353 11.1523 -210.102 10.8519 -210.673 10.251C-211.24 9.64583 -211.523 8.86296 -211.523 7.90234C-211.523 6.83171 -211.217 5.97266 -210.603 5.3252C-209.989 4.6735 -209.171 4.34766 -208.146 4.34766C-207.575 4.34766 -207.072 4.45345 -206.636 4.66504V5.73145C-207.118 5.3929 -207.634 5.22363 -208.185 5.22363C-208.849 5.22363 -209.395 5.46273 -209.822 5.94092C-210.245 6.41488 -210.457 7.03906 -210.457 7.81348C-210.457 8.5752 -210.258 9.17611 -209.86 9.61621C-209.458 10.0563 -208.921 10.2764 -208.248 10.2764C-207.681 10.2764 -207.148 10.0881 -206.648 9.71143V10.7017ZM-200.993 5.38867H-202.941V11H-203.982V5.38867H-205.938V4.5H-200.993V5.38867ZM-195.089 11H-196.13V9.98438H-196.156C-196.609 10.763 -197.275 11.1523 -198.155 11.1523C-198.803 11.1523 -199.311 10.981 -199.679 10.6382C-200.043 10.2954 -200.225 9.84049 -200.225 9.27344C-200.225 8.05892 -199.509 7.35221 -198.079 7.15332L-196.13 6.88037C-196.13 5.77588 -196.577 5.22363 -197.47 5.22363C-198.253 5.22363 -198.959 5.49023 -199.59 6.02344V4.95703C-198.951 4.55078 -198.215 4.34766 -197.381 4.34766C-195.853 4.34766 -195.089 5.15592 -195.089 6.77246V11ZM-196.13 7.71191L-197.698 7.92773C-198.181 7.99544 -198.545 8.11605 -198.79 8.28955C-199.035 8.45882 -199.158 8.76139 -199.158 9.19727C-199.158 9.51465 -199.046 9.7749 -198.822 9.97803C-198.593 10.1769 -198.291 10.2764 -197.914 10.2764C-197.398 10.2764 -196.972 10.0965 -196.638 9.73682C-196.3 9.37288 -196.13 8.91374 -196.13 8.35938V7.71191ZM-193.128 11V4.5H-190.297C-189.658 4.5 -189.154 4.64176 -188.786 4.92529C-188.414 5.20882 -188.228 5.59603 -188.228 6.08691C-188.228 6.92904 -188.642 7.44108 -189.472 7.62305C-188.477 7.75 -187.98 8.25146 -187.98 9.12744C-187.98 9.65641 -188.185 10.1007 -188.596 10.4604C-189.002 10.8201 -189.508 11 -190.113 11H-193.128ZM-192.087 5.38867V7.2168H-190.525C-189.688 7.2168 -189.269 6.89095 -189.269 6.23926C-189.269 5.6722 -189.645 5.38867 -190.398 5.38867H-192.087ZM-192.087 8.10547V10.1113H-190.284C-189.442 10.1113 -189.021 9.77067 -189.021 9.08936C-189.021 8.43343 -189.493 8.10547 -190.437 8.10547H-192.087ZM-180.839 11H-182.299L-185.168 7.87695H-185.193V11H-186.234V4.5H-185.193V7.47705H-185.168L-182.438 4.5H-181.074L-184.089 7.63574L-180.839 11ZM-175.12 11H-176.161V9.98438H-176.186C-176.639 10.763 -177.305 11.1523 -178.186 11.1523C-178.833 11.1523 -179.341 10.981 -179.709 10.6382C-180.073 10.2954 -180.255 9.84049 -180.255 9.27344C-180.255 8.05892 -179.54 7.35221 -178.109 7.15332L-176.161 6.88037C-176.161 5.77588 -176.607 5.22363 -177.5 5.22363C-178.283 5.22363 -178.99 5.49023 -179.62 6.02344V4.95703C-178.981 4.55078 -178.245 4.34766 -177.411 4.34766C-175.883 4.34766 -175.12 5.15592 -175.12 6.77246V11ZM-176.161 7.71191L-177.729 7.92773C-178.211 7.99544 -178.575 8.11605 -178.82 8.28955C-179.066 8.45882 -179.188 8.76139 -179.188 9.19727C-179.188 9.51465 -179.076 9.7749 -178.852 9.97803C-178.624 10.1769 -178.321 10.2764 -177.944 10.2764C-177.428 10.2764 -177.003 10.0965 -176.668 9.73682C-176.33 9.37288 -176.161 8.91374 -176.161 8.35938V7.71191ZM-165.509 5.38867H-167.458V11H-168.499V5.38867H-170.454V4.5H-165.509V5.38867ZM-161.542 11.1523C-162.503 11.1523 -163.271 10.8498 -163.846 10.2446C-164.417 9.63525 -164.703 8.8291 -164.703 7.82617C-164.703 6.73438 -164.405 5.88167 -163.808 5.26807C-163.211 4.65446 -162.405 4.34766 -161.39 4.34766C-160.421 4.34766 -159.665 4.646 -159.124 5.24268C-158.578 5.83936 -158.305 6.66667 -158.305 7.72461C-158.305 8.76139 -158.599 9.59294 -159.187 10.2192C-159.771 10.8413 -160.556 11.1523 -161.542 11.1523ZM-161.466 5.22363C-162.134 5.22363 -162.663 5.45215 -163.053 5.90918C-163.442 6.36198 -163.637 6.98828 -163.637 7.78809C-163.637 8.55827 -163.44 9.16553 -163.046 9.60986C-162.653 10.0542 -162.126 10.2764 -161.466 10.2764C-160.793 10.2764 -160.277 10.0584 -159.917 9.62256C-159.553 9.18669 -159.371 8.56673 -159.371 7.7627C-159.371 6.9502 -159.553 6.32389 -159.917 5.88379C-160.277 5.44368 -160.793 5.22363 -161.466 5.22363ZM-156.642 11V4.5H-153.811C-153.172 4.5 -152.668 4.64176 -152.3 4.92529C-151.927 5.20882 -151.741 5.59603 -151.741 6.08691C-151.741 6.92904 -152.156 7.44108 -152.985 7.62305C-151.991 7.75 -151.494 8.25146 -151.494 9.12744C-151.494 9.65641 -151.699 10.1007 -152.109 10.4604C-152.516 10.8201 -153.021 11 -153.626 11H-156.642ZM-155.601 5.38867V7.2168H-154.039C-153.201 7.2168 -152.782 6.89095 -152.782 6.23926C-152.782 5.6722 -153.159 5.38867 -153.912 5.38867H-155.601ZM-155.601 8.10547V10.1113H-153.798C-152.956 10.1113 -152.535 9.77067 -152.535 9.08936C-152.535 8.43343 -153.007 8.10547 -153.95 8.10547H-155.601ZM-145.095 11H-146.136V9.98438H-146.162C-146.614 10.763 -147.281 11.1523 -148.161 11.1523C-148.809 11.1523 -149.316 10.981 -149.685 10.6382C-150.049 10.2954 -150.23 9.84049 -150.23 9.27344C-150.23 8.05892 -149.515 7.35221 -148.085 7.15332L-146.136 6.88037C-146.136 5.77588 -146.583 5.22363 -147.476 5.22363C-148.258 5.22363 -148.965 5.49023 -149.596 6.02344V4.95703C-148.957 4.55078 -148.22 4.34766 -147.387 4.34766C-145.859 4.34766 -145.095 5.15592 -145.095 6.77246V11ZM-146.136 7.71191L-147.704 7.92773C-148.187 7.99544 -148.55 8.11605 -148.796 8.28955C-149.041 8.45882 -149.164 8.76139 -149.164 9.19727C-149.164 9.51465 -149.052 9.7749 -148.828 9.97803C-148.599 10.1769 -148.297 10.2764 -147.92 10.2764C-147.404 10.2764 -146.978 10.0965 -146.644 9.73682C-146.306 9.37288 -146.136 8.91374 -146.136 8.35938V7.71191ZM-142.067 10.0605H-142.093V13.9897H-143.134V4.5H-142.093V5.64258H-142.067C-141.555 4.7793 -140.806 4.34766 -139.82 4.34766C-138.982 4.34766 -138.329 4.63965 -137.859 5.22363C-137.389 5.80339 -137.154 6.58203 -137.154 7.55957C-137.154 8.64714 -137.419 9.51888 -137.948 10.1748C-138.477 10.8265 -139.2 11.1523 -140.119 11.1523C-140.961 11.1523 -141.61 10.7884 -142.067 10.0605ZM-142.093 7.43896V8.34668C-142.093 8.88411 -141.919 9.34115 -141.572 9.71777C-141.221 10.0902 -140.777 10.2764 -140.239 10.2764C-139.609 10.2764 -139.116 10.0352 -138.76 9.55273C-138.401 9.07031 -138.221 8.39958 -138.221 7.54053C-138.221 6.81689 -138.388 6.24984 -138.722 5.83936C-139.056 5.42887 -139.509 5.22363 -140.081 5.22363C-140.686 5.22363 -141.172 5.43522 -141.541 5.8584C-141.909 6.27734 -142.093 6.8042 -142.093 7.43896ZM-132.774 11.1523C-133.735 11.1523 -134.503 10.8498 -135.079 10.2446C-135.65 9.63525 -135.936 8.8291 -135.936 7.82617C-135.936 6.73438 -135.637 5.88167 -135.041 5.26807C-134.444 4.65446 -133.638 4.34766 -132.622 4.34766C-131.653 4.34766 -130.898 4.646 -130.356 5.24268C-129.81 5.83936 -129.537 6.66667 -129.537 7.72461C-129.537 8.76139 -129.831 9.59294 -130.419 10.2192C-131.003 10.8413 -131.788 11.1523 -132.774 11.1523ZM-132.698 5.22363C-133.367 5.22363 -133.896 5.45215 -134.285 5.90918C-134.674 6.36198 -134.869 6.98828 -134.869 7.78809C-134.869 8.55827 -134.672 9.16553 -134.279 9.60986C-133.885 10.0542 -133.358 10.2764 -132.698 10.2764C-132.025 10.2764 -131.509 10.0584 -131.149 9.62256C-130.785 9.18669 -130.604 8.56673 -130.604 7.7627C-130.604 6.9502 -130.785 6.32389 -131.149 5.88379C-131.509 5.44368 -132.025 5.22363 -132.698 5.22363ZM-127.874 11V4.5H-125.043C-124.404 4.5 -123.9 4.64176 -123.532 4.92529C-123.16 5.20882 -122.974 5.59603 -122.974 6.08691C-122.974 6.92904 -123.388 7.44108 -124.218 7.62305C-123.223 7.75 -122.726 8.25146 -122.726 9.12744C-122.726 9.65641 -122.931 10.1007 -123.342 10.4604C-123.748 10.8201 -124.254 11 -124.859 11H-127.874ZM-126.833 5.38867V7.2168H-125.271C-124.434 7.2168 -124.015 6.89095 -124.015 6.23926C-124.015 5.6722 -124.391 5.38867 -125.145 5.38867H-126.833ZM-126.833 8.10547V10.1113H-125.03C-124.188 10.1113 -123.767 9.77067 -123.767 9.08936C-123.767 8.43343 -124.239 8.10547 -125.183 8.10547H-126.833ZM-112.018 11H-113.059V8.04834H-116.372V11H-117.413V4.5H-116.372V7.16602H-113.059V4.5H-112.018V11ZM-105.257 11H-106.298V9.98438H-106.324C-106.777 10.763 -107.443 11.1523 -108.323 11.1523C-108.971 11.1523 -109.479 10.981 -109.847 10.6382C-110.211 10.2954 -110.393 9.84049 -110.393 9.27344C-110.393 8.05892 -109.677 7.35221 -108.247 7.15332L-106.298 6.88037C-106.298 5.77588 -106.745 5.22363 -107.638 5.22363C-108.421 5.22363 -109.127 5.49023 -109.758 6.02344V4.95703C-109.119 4.55078 -108.382 4.34766 -107.549 4.34766C-106.021 4.34766 -105.257 5.15592 -105.257 6.77246V11ZM-106.298 7.71191L-107.866 7.92773C-108.349 7.99544 -108.713 8.11605 -108.958 8.28955C-109.203 8.45882 -109.326 8.76139 -109.326 9.19727C-109.326 9.51465 -109.214 9.7749 -108.99 9.97803C-108.761 10.1769 -108.459 10.2764 -108.082 10.2764C-107.566 10.2764 -107.14 10.0965 -106.806 9.73682C-106.468 9.37288 -106.298 8.91374 -106.298 8.35938V7.71191ZM-95.2979 10.7017C-95.7972 11.0021 -96.3896 11.1523 -97.0752 11.1523C-98.002 11.1523 -98.751 10.8519 -99.3223 10.251C-99.8893 9.64583 -100.173 8.86296 -100.173 7.90234C-100.173 6.83171 -99.866 5.97266 -99.2524 5.3252C-98.6388 4.6735 -97.82 4.34766 -96.7959 4.34766C-96.2246 4.34766 -95.721 4.45345 -95.2852 4.66504V5.73145C-95.7676 5.3929 -96.2839 5.22363 -96.834 5.22363C-97.4984 5.22363 -98.0443 5.46273 -98.4717 5.94092C-98.8949 6.41488 -99.1064 7.03906 -99.1064 7.81348C-99.1064 8.5752 -98.9076 9.17611 -98.5098 9.61621C-98.1077 10.0563 -97.5703 10.2764 -96.8975 10.2764C-96.3304 10.2764 -95.7972 10.0881 -95.2979 9.71143V10.7017ZM-88.3281 11H-89.7881L-92.6572 7.87695H-92.6826V11H-93.7236V4.5H-92.6826V7.47705H-92.6572L-89.9277 4.5H-88.563L-91.5781 7.63574L-88.3281 11ZM-82.52 11H-83.5547V5.38232H-85.0654C-85.2389 7.48551 -85.5373 8.9624 -85.9604 9.81299C-86.3794 10.6636 -86.9443 11.0889 -87.6553 11.0889C-87.8711 11.0889 -88.0573 11.0592 -88.2139 11V10.105C-88.0658 10.1812 -87.9049 10.2192 -87.7314 10.2192C-86.8005 10.2192 -86.2017 8.31283 -85.9351 4.5H-82.52V11ZM-75.7534 11H-76.7944V9.98438H-76.8198C-77.2726 10.763 -77.9391 11.1523 -78.8193 11.1523C-79.4668 11.1523 -79.9746 10.981 -80.3428 10.6382C-80.7067 10.2954 -80.8887 9.84049 -80.8887 9.27344C-80.8887 8.05892 -80.1735 7.35221 -78.7432 7.15332L-76.7944 6.88037C-76.7944 5.77588 -77.2409 5.22363 -78.1338 5.22363C-78.9167 5.22363 -79.6234 5.49023 -80.2539 6.02344V4.95703C-79.6149 4.55078 -78.8786 4.34766 -78.0449 4.34766C-76.5173 4.34766 -75.7534 5.15592 -75.7534 6.77246V11ZM-76.7944 7.71191L-78.3623 7.92773C-78.8447 7.99544 -79.2087 8.11605 -79.4541 8.28955C-79.6995 8.45882 -79.8223 8.76139 -79.8223 9.19727C-79.8223 9.51465 -79.7101 9.7749 -79.4858 9.97803C-79.2573 10.1769 -78.9548 10.2764 -78.5781 10.2764C-78.0618 10.2764 -77.6366 10.0965 -77.3022 9.73682C-76.9637 9.37288 -76.7944 8.91374 -76.7944 8.35938V7.71191ZM-68.1235 13.3677H-69.0059V11H-73.8428V13.3677H-74.7314V10.1177H-74.1538C-73.0451 8.51807 -72.4823 6.64551 -72.4653 4.5H-69.0884V10.1177H-68.1235V13.3677ZM-70.1294 10.1177V5.38232H-71.5703C-71.6846 7.13428 -72.1776 8.71273 -73.0493 10.1177H-70.1294ZM-57.7197 11H-58.7607V5.38867H-62.0742V11H-63.1152V4.5H-57.7197V11ZM-54.5459 10.0605H-54.5713V13.9897H-55.6123V4.5H-54.5713V5.64258H-54.5459C-54.0339 4.7793 -53.2848 4.34766 -52.2988 4.34766C-51.4609 4.34766 -50.8071 4.63965 -50.3374 5.22363C-49.8677 5.80339 -49.6328 6.58203 -49.6328 7.55957C-49.6328 8.64714 -49.8973 9.51888 -50.4263 10.1748C-50.9552 10.8265 -51.6789 11.1523 -52.5972 11.1523C-53.4393 11.1523 -54.0889 10.7884 -54.5459 10.0605ZM-54.5713 7.43896V8.34668C-54.5713 8.88411 -54.3978 9.34115 -54.0508 9.71777C-53.6995 10.0902 -53.2552 10.2764 -52.7178 10.2764C-52.0872 10.2764 -51.5942 10.0352 -51.2388 9.55273C-50.8791 9.07031 -50.6992 8.39958 -50.6992 7.54053C-50.6992 6.81689 -50.8664 6.24984 -51.2007 5.83936C-51.535 5.42887 -51.9878 5.22363 -52.5591 5.22363C-53.1642 5.22363 -53.6509 5.43522 -54.019 5.8584C-54.3872 6.27734 -54.5713 6.8042 -54.5713 7.43896ZM-42.5234 11H-43.4629V5.81396C-43.556 5.99593 -43.6978 6.25195 -43.8882 6.58203L-46.8906 11H-47.9697V4.5H-47.0176V9.62256C-46.9668 9.49984 -46.8568 9.29036 -46.6875 8.99414L-43.6025 4.5H-42.5234V11ZM-34.1318 11.1523C-35.0924 11.1523 -35.8605 10.8498 -36.436 10.2446C-37.0073 9.63525 -37.293 8.8291 -37.293 7.82617C-37.293 6.73438 -36.9946 5.88167 -36.3979 5.26807C-35.8013 4.65446 -34.9951 4.34766 -33.9795 4.34766C-33.0104 4.34766 -32.255 4.646 -31.7134 5.24268C-31.1675 5.83936 -30.8945 6.66667 -30.8945 7.72461C-30.8945 8.76139 -31.1886 9.59294 -31.7769 10.2192C-32.3608 10.8413 -33.1458 11.1523 -34.1318 11.1523ZM-34.0557 5.22363C-34.7243 5.22363 -35.2533 5.45215 -35.6426 5.90918C-36.0319 6.36198 -36.2266 6.98828 -36.2266 7.78809C-36.2266 8.55827 -36.0298 9.16553 -35.6362 9.60986C-35.2427 10.0542 -34.7158 10.2764 -34.0557 10.2764C-33.3828 10.2764 -32.8665 10.0584 -32.5068 9.62256C-32.1429 9.18669 -31.9609 8.56673 -31.9609 7.7627C-31.9609 6.9502 -32.1429 6.32389 -32.5068 5.88379C-32.8665 5.44368 -33.3828 5.22363 -34.0557 5.22363ZM-25.1499 5.38867H-27.0986V11H-28.1396V5.38867H-30.0947V4.5H-25.1499V5.38867ZM-18.5039 11H-19.9639L-22.833 7.87695H-22.8584V11H-23.8994V4.5H-22.8584V7.47705H-22.833L-20.1035 4.5H-18.7388L-21.7539 7.63574L-18.5039 11ZM-12.7847 11H-13.8257V9.98438H-13.8511C-14.3039 10.763 -14.9704 11.1523 -15.8506 11.1523C-16.498 11.1523 -17.0059 10.981 -17.374 10.6382C-17.738 10.2954 -17.9199 9.84049 -17.9199 9.27344C-17.9199 8.05892 -17.2048 7.35221 -15.7744 7.15332L-13.8257 6.88037C-13.8257 5.77588 -14.2721 5.22363 -15.165 5.22363C-15.9479 5.22363 -16.6546 5.49023 -17.2852 6.02344V4.95703C-16.6462 4.55078 -15.9098 4.34766 -15.0762 4.34766C-13.5485 4.34766 -12.7847 5.15592 -12.7847 6.77246V11ZM-13.8257 7.71191L-15.3936 7.92773C-15.876 7.99544 -16.2399 8.11605 -16.4854 8.28955C-16.7308 8.45882 -16.8535 8.76139 -16.8535 9.19727C-16.8535 9.51465 -16.7414 9.7749 -16.5171 9.97803C-16.2886 10.1769 -15.986 10.2764 -15.6094 10.2764C-15.0931 10.2764 -14.6678 10.0965 -14.3335 9.73682C-13.995 9.37288 -13.8257 8.91374 -13.8257 8.35938V7.71191ZM-11.3691 10.8159V9.79395C-10.8021 10.1113 -10.1398 10.27 -9.38232 10.27C-8.23551 10.27 -7.66211 9.90609 -7.66211 9.17822C-7.66211 8.45882 -8.29053 8.09912 -9.54736 8.09912H-10.1885V7.2168H-9.5791C-8.47461 7.2168 -7.92236 6.87402 -7.92236 6.18848C-7.92236 5.89648 -8.04932 5.66374 -8.30322 5.49023C-8.55713 5.31673 -8.90413 5.22998 -9.34424 5.22998C-9.97477 5.22998 -10.6074 5.38867 -11.2422 5.70605V4.73486C-10.5228 4.47249 -9.86263 4.34131 -9.26172 4.34131C-7.67904 4.34131 -6.8877 4.92318 -6.8877 6.08691C-6.8877 6.46354 -7.00618 6.78939 -7.24316 7.06445C-7.47591 7.33529 -7.80387 7.51514 -8.22705 7.604V7.63574C-7.74463 7.67383 -7.35742 7.83675 -7.06543 8.12451C-6.77344 8.41227 -6.62744 8.7762 -6.62744 9.21631C-6.62744 9.80876 -6.86654 10.2806 -7.34473 10.6318C-7.82292 10.9831 -8.48096 11.1587 -9.31885 11.1587C-10.2118 11.1587 -10.8952 11.0444 -11.3691 10.8159ZM0.202637 8.01025H-4.38672C-4.36979 8.73389 -4.17513 9.29248 -3.80273 9.68604C-3.43034 10.0796 -2.91829 10.2764 -2.2666 10.2764C-1.53451 10.2764 -0.861654 10.0352 -0.248047 9.55273V10.5303C-0.819336 10.945 -1.57471 11.1523 -2.51416 11.1523C-3.43245 11.1523 -4.15397 10.8582 -4.67871 10.27C-5.20345 9.67757 -5.46582 8.84603 -5.46582 7.77539C-5.46582 6.764 -5.18018 5.94092 -4.60889 5.30615C-4.03337 4.66715 -3.32031 4.34766 -2.46973 4.34766C-1.61914 4.34766 -0.9611 4.62272 -0.495605 5.17285C-0.0301107 5.72298 0.202637 6.48682 0.202637 7.46436V8.01025ZM-0.86377 7.12793C-0.868001 6.52702 -1.014 6.05941 -1.30176 5.7251C-1.58529 5.39079 -1.98096 5.22363 -2.48877 5.22363C-2.97965 5.22363 -3.39648 5.39925 -3.73926 5.75049C-4.08203 6.10173 -4.29362 6.56087 -4.37402 7.12793H-0.86377ZM17.2969 7.78809H4.29688V6.96924H17.2969V7.78809Z" fill="black"/>
<path d="M28.0811 1.30078V2.27832C27.9076 2.40527 27.6283 2.50049 27.2432 2.56396C26.291 2.70785 25.6245 2.84749 25.2437 2.98291C24.867 3.1141 24.556 3.39762 24.3105 3.8335C24.0693 4.26937 23.9149 4.90625 23.8472 5.74414H23.8726C24.3804 5.00781 25.104 4.63965 26.0435 4.63965C26.9025 4.63965 27.5944 4.93376 28.1191 5.52197C28.6439 6.11019 28.9062 6.88672 28.9062 7.85156C28.9062 8.84603 28.6312 9.64583 28.0811 10.251C27.5352 10.8519 26.7988 11.1523 25.8721 11.1523C24.8734 11.1523 24.1032 10.799 23.5615 10.0923C23.0241 9.38135 22.7554 8.36784 22.7554 7.05176C22.7554 6.02767 22.8527 5.16016 23.0474 4.44922C23.242 3.73405 23.5107 3.19661 23.8535 2.83691C24.2005 2.47721 24.5835 2.22965 25.0024 2.09424C25.4256 1.95882 26.1493 1.80013 27.1733 1.61816C27.5796 1.52507 27.8822 1.41927 28.0811 1.30078ZM23.8345 6.77246V7.67383C23.8387 8.01237 23.8895 8.34456 23.9868 8.67041C24.0841 8.99626 24.2238 9.28402 24.4058 9.53369C24.5877 9.78337 24.8014 9.96956 25.0469 10.0923C25.2965 10.215 25.5801 10.2764 25.8975 10.2764C26.4772 10.2764 26.9448 10.0605 27.3003 9.62891C27.66 9.19303 27.8398 8.63656 27.8398 7.95947C27.8398 7.21468 27.6558 6.62435 27.2876 6.18848C26.9237 5.74837 26.4307 5.52832 25.8086 5.52832C24.9368 5.52832 24.2788 5.94303 23.8345 6.77246ZM35.8062 8.01025H31.2168C31.2337 8.73389 31.4284 9.29248 31.8008 9.68604C32.1732 10.0796 32.6852 10.2764 33.3369 10.2764C34.069 10.2764 34.7419 10.0352 35.3555 9.55273V10.5303C34.7842 10.945 34.0288 11.1523 33.0894 11.1523C32.1711 11.1523 31.4495 10.8582 30.9248 10.27C30.4001 9.67757 30.1377 8.84603 30.1377 7.77539C30.1377 6.764 30.4233 5.94092 30.9946 5.30615C31.5701 4.66715 32.2832 4.34766 33.1338 4.34766C33.9844 4.34766 34.6424 4.62272 35.1079 5.17285C35.5734 5.72298 35.8062 6.48682 35.8062 7.46436V8.01025ZM34.7397 7.12793C34.7355 6.52702 34.5895 6.05941 34.3018 5.7251C34.0182 5.39079 33.6226 5.22363 33.1147 5.22363C32.6239 5.22363 32.207 5.39925 31.8643 5.75049C31.5215 6.10173 31.3099 6.56087 31.2295 7.12793H34.7397ZM41.8174 10.7017C41.318 11.0021 40.7256 11.1523 40.04 11.1523C39.1133 11.1523 38.3643 10.8519 37.793 10.251C37.2259 9.64583 36.9424 8.86296 36.9424 7.90234C36.9424 6.83171 37.2492 5.97266 37.8628 5.3252C38.4764 4.6735 39.2952 4.34766 40.3193 4.34766C40.8906 4.34766 41.3942 4.45345 41.8301 4.66504V5.73145C41.3477 5.3929 40.8314 5.22363 40.2812 5.22363C39.6169 5.22363 39.071 5.46273 38.6436 5.94092C38.2204 6.41488 38.0088 7.03906 38.0088 7.81348C38.0088 8.5752 38.2077 9.17611 38.6055 9.61621C39.0075 10.0563 39.5449 10.2764 40.2178 10.2764C40.7848 10.2764 41.318 10.0881 41.8174 9.71143V10.7017ZM48.7871 11H47.7461V5.38867H44.4326V11H43.3916V4.5H48.7871V11ZM55.6362 11H54.6016V5.38232H53.0908C52.9173 7.48551 52.619 8.9624 52.1958 9.81299C51.7769 10.6636 51.2119 11.0889 50.501 11.0889C50.2852 11.0889 50.099 11.0592 49.9424 11V10.105C50.0905 10.1812 50.2513 10.2192 50.4248 10.2192C51.3558 10.2192 51.9546 8.31283 52.2212 4.5H55.6362V11ZM62.4028 11H61.3618V9.98438H61.3364C60.8836 10.763 60.2171 11.1523 59.3369 11.1523C58.6895 11.1523 58.1816 10.981 57.8135 10.6382C57.4495 10.2954 57.2676 9.84049 57.2676 9.27344C57.2676 8.05892 57.9827 7.35221 59.4131 7.15332L61.3618 6.88037C61.3618 5.77588 60.9154 5.22363 60.0225 5.22363C59.2396 5.22363 58.5329 5.49023 57.9023 6.02344V4.95703C58.5413 4.55078 59.2777 4.34766 60.1113 4.34766C61.639 4.34766 62.4028 5.15592 62.4028 6.77246V11ZM61.3618 7.71191L59.7939 7.92773C59.3115 7.99544 58.9476 8.11605 58.7021 8.28955C58.4567 8.45882 58.334 8.76139 58.334 9.19727C58.334 9.51465 58.4461 9.7749 58.6704 9.97803C58.8989 10.1769 59.2015 10.2764 59.5781 10.2764C60.0944 10.2764 60.5197 10.0965 60.854 9.73682C61.1925 9.37288 61.3618 8.91374 61.3618 8.35938V7.71191ZM68.4458 5.38867H66.4971V11H65.4561V5.38867H63.501V4.5H68.4458V5.38867ZM75.0918 11H74.0508V8.04834H70.7373V11H69.6963V4.5H70.7373V7.16602H74.0508V4.5H75.0918V11ZM79.916 11.1523C78.9554 11.1523 78.1873 10.8498 77.6118 10.2446C77.0405 9.63525 76.7549 8.8291 76.7549 7.82617C76.7549 6.73438 77.0532 5.88167 77.6499 5.26807C78.2466 4.65446 79.0527 4.34766 80.0684 4.34766C81.0374 4.34766 81.7928 4.646 82.3345 5.24268C82.8804 5.83936 83.1533 6.66667 83.1533 7.72461C83.1533 8.76139 82.8592 9.59294 82.271 10.2192C81.687 10.8413 80.902 11.1523 79.916 11.1523ZM79.9922 5.22363C79.3236 5.22363 78.7946 5.45215 78.4053 5.90918C78.016 6.36198 77.8213 6.98828 77.8213 7.78809C77.8213 8.55827 78.0181 9.16553 78.4116 9.60986C78.8052 10.0542 79.332 10.2764 79.9922 10.2764C80.665 10.2764 81.1813 10.0584 81.541 9.62256C81.9049 9.18669 82.0869 8.56673 82.0869 7.7627C82.0869 6.9502 81.9049 6.32389 81.541 5.88379C81.1813 5.44368 80.665 5.22363 79.9922 5.22363Z" fill="#0CB477"/>
<path d="M22 15H84" stroke="#0CB477" stroke-opacity="0.2" stroke-linecap="square" stroke-dasharray="4 2"/>
<rect x="-366" y="-321" width="1024" height="780" fill="#05000A" fill-opacity="0.3"/>
<g filter="url(#filter0_d_7_43)">
<g clip-path="url(#clip0_7_43)">
<rect x="-54" y="-141.5" width="400" height="408" rx="16" fill="white"/>
<rect x="-4" y="-4.5" width="32" height="24" rx="4" fill="#F6F6FA"/>
<path fill-rule="evenodd" clip-rule="evenodd" d="M22.9337 11.8367V11.5649H22.8629L22.781 11.7514L22.6996 11.5649H22.6286V11.8367H22.6788V11.632L22.7554 11.8086H22.8075L22.884 11.6315V11.8367H22.9339H22.9337ZM22.4846 11.8367V11.6115H22.5752V11.5656H22.3438V11.6115H22.4343V11.8367H22.4846Z" fill="#F79410"/>
<path fill-rule="evenodd" clip-rule="evenodd" d="M14.8883 13.0014H8.76367V1.99463H14.8884L14.8883 13.0014Z" fill="#FF5F00"/>
<path fill-rule="evenodd" clip-rule="evenodd" d="M9.15147 7.49987C9.15147 5.26713 10.1969 3.27821 11.8248 1.99643C10.5928 1.02498 9.06814 0.497414 7.49923 0.499764C3.63356 0.499764 0.5 3.63376 0.5 7.49987C0.5 11.3659 3.63356 14.4999 7.49923 14.4999C9.06814 14.5023 10.5929 13.9747 11.8249 13.0032C10.1971 11.7217 9.15147 9.73269 9.15147 7.49987Z" fill="#EB001B"/>
<path fill-rule="evenodd" clip-rule="evenodd" d="M23.1497 7.49987C23.1497 11.3659 20.0161 14.4999 16.1505 14.4999C14.5814 14.5022 13.0565 13.9747 11.8242 13.0032C13.4526 11.7215 14.498 9.73269 14.498 7.49987C14.498 5.26699 13.4526 3.27821 11.8242 1.99643C13.0564 1.02498 14.5813 0.497487 16.1504 0.499763C20.016 0.499763 23.1496 3.63376 23.1496 7.49987" fill="#F79410"/>
</g>
</g>
<defs>
<filter id="filter0_d_7_43" x="-64" y="-147.5" width="420" height="428" filterUnits="userSpaceOnUse" color-interpolation-filters="sRGB">
<feFlood flood-opacity="0" result="BackgroundImageFix"/>
<feColorMatrix in="SourceAlpha" type="matrix" values="0 0 0 0 0 0 0 0 0 0 0 0 0 0 0 0 0 0 127 0" result="hardAlpha"/>
<feOffset dy="4"/>
<feGaussianBlur stdDeviation="5"/>
<feColorMatrix type="matrix" values="0 0 0 0 0 0 0 0 0 0 0 0 0 0 0 0 0 0 0.2 0"/>
<feBlend mode="normal" in2="BackgroundImageFix" result="effect1_dropShadow_7_43"/>
<feBlend mode="normal" in="SourceGraphic" in2="effect1_dropShadow_7_43" result="shape"/>
</filter>
<clipPath id="clip0_7_43">
<rect x="-54" y="-141.5" width="400" height="408" rx="16" fill="white"/>
</clipPath>
</defs>
</svg>
