<svg width="32" height="13" viewBox="0 0 32 13" fill="none" xmlns="http://www.w3.org/2000/svg">
<rect width="32" height="13" fill="#E3E3E3"/>
<rect width="1024" height="780" transform="translate(-362 -282)" fill="#F6F6FA"/>
<rect x="-338" y="-282" width="638" height="362" rx="16" fill="white"/>
<rect x="-362" y="-282" width="1024" height="780" fill="#05000A" fill-opacity="0.3"/>
<g filter="url(#filter0_d_7_43)">
<g clip-path="url(#clip0_7_43)">
<rect x="-50" y="-102.5" width="400" height="408" rx="16" fill="white"/>
<rect y="-5.5" width="32" height="24" rx="4" fill="#F6F6FA"/>
<path fill-rule="evenodd" clip-rule="evenodd" d="M16.4709 4.67817C16.453 6.08581 17.7254 6.87134 18.6838 7.33838C19.6686 7.81763 19.9994 8.12493 19.9956 8.55341C19.9881 9.20931 19.21 9.49869 18.4818 9.50995C17.2113 9.52967 16.4727 9.16698 15.8855 8.89262L15.4279 11.0341C16.017 11.3057 17.108 11.5425 18.2394 11.5528C20.8949 11.5528 22.6323 10.242 22.6418 8.2095C22.6521 5.6301 19.0738 5.48725 19.0982 4.33426C19.1067 3.98472 19.4403 3.61163 20.1713 3.51674C20.5331 3.46886 21.532 3.43217 22.6643 3.95366L23.1087 1.88176C22.4998 1.65997 21.7171 1.44757 20.7427 1.44757C18.2431 1.44757 16.485 2.77627 16.4709 4.67817ZM27.3796 1.6261C26.8947 1.6261 26.4859 1.90899 26.3037 2.3431L22.5102 11.4006H25.1638L25.6919 9.94125H28.9347L29.241 11.4006H31.5799L29.5389 1.6261H27.3796ZM27.7507 4.26659L28.5165 7.93694H26.4192L27.7507 4.26659ZM13.2535 1.6261L11.1618 11.4006H13.6904L15.7812 1.6261H13.2535ZM9.51266 1.6261L6.88061 8.27897L5.81595 2.62215C5.69101 1.99074 5.19768 1.6261 4.64982 1.6261H0.347122L0.286962 1.90992C1.17028 2.10159 2.17385 2.41077 2.78179 2.74153C3.15386 2.94353 3.2601 3.12018 3.38222 3.60037L5.39874 11.4006H8.07123L12.1682 1.6261H9.51266Z" fill="#1434CB"/>
</g>
</g>
<defs>
<filter id="filter0_d_7_43" x="-60" y="-108.5" width="420" height="428" filterUnits="userSpaceOnUse" color-interpolation-filters="sRGB">
<feFlood flood-opacity="0" result="BackgroundImageFix"/>
<feColorMatrix in="SourceAlpha" type="matrix" values="0 0 0 0 0 0 0 0 0 0 0 0 0 0 0 0 0 0 127 0" result="hardAlpha"/>
<feOffset dy="4"/>
<feGaussianBlur stdDeviation="5"/>
<feColorMatrix type="matrix" values="0 0 0 0 0 0 0 0 0 0 0 0 0 0 0 0 0 0 0.2 0"/>
<feBlend mode="normal" in2="BackgroundImageFix" result="effect1_dropShadow_7_43"/>
<feBlend mode="normal" in="SourceGraphic" in2="effect1_dropShadow_7_43" result="shape"/>
</filter>
<clipPath id="clip0_7_43">
<rect x="-50" y="-102.5" width="400" height="408" rx="16" fill="white"/>
</clipPath>
</defs>
</svg>
